<svg xmlns="http://www.w3.org/2000/svg"  viewBox="0 0 50 50" width="50px" height="50px"><path d="M 23.972656 4 C 20.166656 4 18.033203 6.664 18.033203 9.5 C 18.033203 12.117 19.842656 15 23.972656 15 L 34.417969 15 C 32.934969 13.629 32 11.674 32 9.5 C 32 7.326 32.934969 5.371 34.417969 4 L 23.972656 4 z M 39.5 4 A 5.5 5.5 0 0 0 39.5 15 A 5.5 5.5 0 0 0 39.5 4 z M 7.8125 18 C 4.0065 18 1.875 20.664 1.875 23.5 C 1.875 26.117 3.6825 29 7.8125 29 L 18.417969 29 C 16.934969 27.629 16 25.674 16 23.5 C 16 21.326 16.934969 19.371 18.417969 18 L 7.8125 18 z M 23.5 18 A 5.5 5.5 0 0 0 23.5 29 A 5.5 5.5 0 0 0 23.5 18 z M 23.990234 32.009766 C 20.187234 32.009766 18.056641 34.672859 18.056641 37.505859 C 18.056641 40.120859 19.863234 43 23.990234 43 L 34.417969 43 C 32.935969 41.63 32 39.677859 32 37.505859 C 32 35.333859 32.935969 33.379766 34.417969 32.009766 L 23.990234 32.009766 z M 39.5 32.009766 A 5.5 5.495 0 1 0 39.5 43 A 5.5 5.495 0 1 0 39.5 32.009766 z"/></svg>